<?xml version="1.0" encoding="utf-8"?>
<!-- Generator: Adobe Illustrator 23.0.5, SVG Export Plug-In . SVG Version: 6.00 Build 0)  -->
<svg version="1.1" id="Camada_1" xmlns="http://www.w3.org/2000/svg" xmlns:xlink="http://www.w3.org/1999/xlink" x="0px" y="0px"
	 viewBox="0 0 757.1 654.3" style="enable-background:new 0 0 757.1 654.3;" xml:space="preserve">
<style type="text/css">
	.st0{fill:#CCCCCC;}
	.st1{fill:#787487;}
	.st2{fill:#242D4A;}
	.st3{fill:#F2F2F2;}
	.st4{opacity:0.46;fill:#5A5569;enable-background:new    ;}
	.st5{fill:#87B786;}
	.st6{fill:#252233;}
	.st7{fill:#5A5569;}
	.st8{fill:#638C62;}
	.st9{fill:#6A9599;}
</style>
<title>Prancheta 32 cópia 2</title>
<g>
	<polygon class="st0" points="182.8,222.1 215,104.7 236,100.5 247.4,112.9 246,237.5 	"/>
	<path class="st1" d="M700.1,424.8c-12.8-11-28.2-12.4-37.9-13.2c-70.4-5.7-137.2-8.6-165.4-9.7v-0.2H1.3v62.4h495.5
		c29.3,1,52.7,5.4,70.2,13.5l-5.6,26.3c-3,9.7-5.4,23.1,0.6,35.2c4.1,8.3,9.8,11.3,14.7,15.7c25.8,23.3,7,68,21.1,73.6
		c8.2,3.2,21.7-8.6,27.5-19.9c7.4-14.6,2.3-29.3,0.4-34.8c-6.2-18-17.5-20.1-18.9-31.3c-0.4-3-0.1-6.7,2-11.1
		c37.6,32.8,78.2,42.6,97.5,27.5c14-10.9,14.4-32.7,15-59.1C721.7,478.7,722.5,443.9,700.1,424.8z"/>
	<polygon class="st2" points="319.9,255.6 342.3,236.8 360,243.9 337.4,265 	"/>
	<polygon class="st3" points="321.7,255.2 322,253 343.5,237.3 360.3,243.5 336.6,263.9 	"/>
	<polygon class="st2" points="321.3,252.5 352,228.5 368.6,240.6 337.7,265 	"/>
	<path class="st1" d="M264.7,58.6c-0.5-0.8-5-7.7-13.5-8.9c-8.8-1.3-15.1,4.4-16.8,5.9c-5.6,5-8.6,12.3-8.3,19.8
		c0.3,5.2,2.5,10.1,5.6,14.2l-6,15.9l10.3,7.6l6.5-5.7l0.8-8c0.1,0.1,0.2,0.1,0.4,0.2c4.3,2,8.5,2.7,11.8,1.4
		c3.8-1.5,5.9-5.5,7.6-11c0.7-2.3,1.4-4.9,2.1-7.6C267.2,74.2,269.3,66,264.7,58.6z"/>
	<path class="st4" d="M263,89.9c-1.7,5.4-3.8,9.5-7.6,11c-3.2,1.3-7.5,0.6-11.8-1.4c-2.4-3-5.5-8.7,1.9-11.7
		C253.4,84.7,259.9,87.3,263,89.9z"/>
	<polygon class="st5" points="385.9,324 427.3,330.4 437.3,429.1 391.2,431.6 389.5,423.2 396.6,415.9 389.5,351.7 389.1,349.8 	"/>
	<path class="st0" d="M431.9,336.7c-8.7,5.4-19,7.8-29.2,6.8c-7.2-0.8-14.1-3.3-20.2-7.3c-5.8-28.6-3.7-47.5-0.3-59.8
		c0.7-2.4,1.5-4.9,2.7-9.1c1.2-4.3,1.7-6,2.2-8c3.6-12.9,8.7-24.9,7.5-29.1c-0.1-0.3-0.4-1.3-0.2-2.6c0.3-1.5,1.3-2.1,2.1-3.2
		c1.4-1.9,0.8-3.6,1.6-5c2-3.5,5.5-5.4,8.4-6.4c2.7,2.7,5.2,5.7,7.4,8.8c2.4,3.4,4.5,7,6.3,10.8c5.6,12.2,7.1,25.1,8.4,40.2
		C430.5,295.2,431.5,316.6,431.9,336.7z"/>
	<path class="st1" d="M291.8,155.3c0,0-7.4-11.3-1.4-14.4s12.5-8.4,18.3,1.2s-19.5,25.7-19.5,25.7c-3.4,2-0.4-2.9-1.4-4
		S288.1,159,291.8,155.3z"/>
	<path class="st6" d="M203.8,105.1l-44.6,43.7c-6.8,6.6,6.9,30.1,12,46.6l-13.1,30.7l26.4,16.5l36.3-134.4L203.8,105.1z
		 M180.6,173.6l-4-15.2l17.4-16.2L180.6,173.6z"/>
	<path class="st6" d="M246.4,112.8L233,249.6l23.6-5.8l2.7-62.6l5.2,15.3c1.8,3.9,6.3,5.5,10.2,3.8c0.9-0.4,1.7-1,2.4-1.8l19.8-25.8
		l-8-18.1l-9.5,8.6l-19.6-47.9L246.4,112.8z"/>
	<polygon class="st7" points="222.1,101.1 209.5,104.1 210,124 200.6,153.1 198.3,191.8 219.4,125.5 	"/>
	<polygon class="st7" points="253.4,110.5 248.2,128.7 251.9,149.7 237.8,199.8 245.5,105.3 	"/>
	<path class="st7" d="M231.9,73c1.4-0.5,2.9-0.2,4,0.7c2.3,1.9,1.3,5.7,2.6,6s3-3.1,3.1-3.3c0.6-1.1,2.8-4.5,1.6-8.6
		c-2.1-7-6.1-9.8-2.1-11.9s12.4,5.7,20.1,4.8s2-6.6,0.2-9.1S246.3,45,236.5,48c-2,0.6-13.3,5.1-15.4,16.3
		c-2.2,11.3,6.7,20.9,7.8,20.5c0.6-0.2-0.5-3.3,0.9-8.1C230.4,74,231.2,73.3,231.9,73z"/>
	<path class="st6" d="M418.7,211.9c6.9,14.5,22.2,16,27.2,9.1s-2.1-8.5-2.1-8.5s10.6-0.7,12.7-9.6s-12.5-12-12.5-12s10-2.2,4.7-14.6
		s-20.4-8.8-20.4-8.8c1.8-4.3-4.4-15.4-16.4-17.1s-12.6,8.3-12.6,8.3s-1.2-9.6-13.3-7.8s2,17.4,2,17.4s-5.3-2.6-11.4,4.8
		s13.1,13.4,13.1,13.4s12.6-7.3,21.3-1.9S414,202,418.7,211.9z"/>
	<path class="st1" d="M411.6,216.7c3.8-2.5,6.8-5.9,8.5-9.9c4.5-10.5,0.4-25.5-11.1-31.9c-6.6-3.6-17-5.2-21.3-1.4
		c-2.9,2.5-2.5,6.8-9.2,14.8l-0.3,0.3c-3.7,4.5-9,10.8-6.2,18.5c2.6,7.3,11.2,11.8,17.3,13.4c2.7,0.7,5.4,0.9,8.1,0.8
		c0,0.8-0.1,1.5-0.1,2.3c-0.1,2,0.1,3.6,0.2,4.8c3,0.8,6.6,1.5,10.6,1.9c4.6,0.5,8.7,0.4,12.2,0.2c-1.7-3.8-3.8-7.4-6.3-10.8
		C413.2,218.8,412.4,217.7,411.6,216.7z"/>
	<path class="st6" d="M416.5,174.9c0,0-15.6,15.7-8.3,22.9s13.5,0.7,8.7,8.8s-6.5,7-2.1,9.6s14.2-11.9,12.2-19.7
		S416.5,174.9,416.5,174.9z"/>
	<g>
		<path class="st8" d="M414.9,160.1L414.9,160.1L414.9,160.1L414.9,160.1z"/>
		<path class="st8" d="M431,164.4c-1.8-4.3-6.5-6.1-9.9-6.8c-2.4-0.5-4.9,0.5-6.2,2.5c0.2,0,6.6,0.8,10.7,2.8
			c2.8,1.4-1.8,15.8-5,24.9c-3,1.1-6.2,4.5-8.2,9.3c-2.9,6.7-2.4,13.3,1.1,14.8s8.7-2.6,11.6-9.3c2.3-5.3,2.4-10.7,0.6-13.3
			C428.8,181.4,433,169.1,431,164.4z"/>
	</g>
	<path class="st1" d="M362.9,246.7c-3.9-2.2-8.4-3.2-12.9-2.8c-3.5,0.2-3.9,1.8-3.9,2.2c0.1,0.6,1.6,1.3,4.8,2.1
		c7.3,1.9-7.7,12.3-7.7,12.3s9.6,3.6,18.8,0c1.6-0.5,2.9-1.6,3.7-3C368,253.1,363.2,246.9,362.9,246.7z"/>
	<path class="st7" d="M109.3,152.6c-0.6-0.1-1-0.2-1-0.2l0.2-1c0,0,0.4,0.1,1,0.2L109.3,152.6z"/>
	<path class="st7" d="M101.2,213.7l-0.1-1c0.6-0.1,1.3-0.2,1.9-0.4l0.2,1C102.5,213.5,101.9,213.6,101.2,213.7z M96,213.3
		c-0.7-0.3-1.4-0.7-1.8-1.3l0.8-0.6c0.4,0.4,0.8,0.8,1.4,1L96,213.3z M108.1,211.7l-0.4-0.9c0.6-0.2,1.2-0.5,1.8-0.8l0.4,0.9
		C109.3,211.2,108.7,211.5,108.1,211.7z M114.5,208.6l-0.5-0.9c0.6-0.3,1.1-0.7,1.7-1l0.5,0.8C115.6,207.9,115,208.3,114.5,208.6z
		 M94.4,207l-1-0.2c0.1-0.6,0.3-1.3,0.6-2l0.9,0.3C94.7,205.8,94.5,206.5,94.4,207z M170.7,205.4c-0.4-0.6-0.7-1.1-1.1-1.6l0.8-0.6
		c0.4,0.5,0.8,1.1,1.1,1.7L170.7,205.4z M120.3,204.7l-0.6-0.8c0.5-0.4,1-0.8,1.6-1.2l0.6,0.8C121.4,203.9,120.9,204.3,120.3,204.7z
		 M97.2,200.8l-0.8-0.5c0.4-0.6,0.8-1.1,1.2-1.7l0.8,0.6C97.9,199.7,97.5,200.3,97.2,200.8z M125.7,200.1l-0.7-0.7
		c0.5-0.5,0.9-0.9,1.4-1.4l0.7,0.7C126.6,199.1,126.2,199.6,125.7,200.1z M166.5,199.9c-0.4-0.5-0.9-1-1.4-1.4l0.7-0.7
		c0.5,0.5,0.9,1,1.4,1.5L166.5,199.9z M101.7,195.6l-0.7-0.7c0.5-0.4,1-0.9,1.6-1.3l0.6,0.8C102.6,194.8,102.1,195.2,101.7,195.6z
		 M161.5,195.2c-0.5-0.4-1-0.8-1.6-1.2l0.6-0.8c0.5,0.4,1.1,0.8,1.6,1.2L161.5,195.2z M130.3,194.6l-0.8-0.6
		c0.4-0.5,0.7-1.1,1.1-1.6l0.9,0.5C131,193.5,130.7,194.1,130.3,194.6z M107.2,191.6l-0.5-0.9c0.6-0.3,1.2-0.7,1.8-1l0.5,0.9
		C108.4,190.9,107.8,191.3,107.2,191.6z M155.7,191.4c-0.6-0.3-1.2-0.6-1.7-0.9l0.4-0.9c0.6,0.3,1.2,0.6,1.8,0.9L155.7,191.4z
		 M113.5,188.6l-0.4-0.9c0.6-0.2,1.3-0.5,1.9-0.7l0.3,0.9C114.7,188.2,114.1,188.4,113.5,188.6z M149.4,188.5
		c-0.6-0.2-1.2-0.4-1.9-0.6l0.3-1c0.6,0.2,1.3,0.4,1.9,0.7L149.4,188.5z M133.7,188.4l-0.9-0.4c0.2-0.6,0.5-1.2,0.6-1.8l1,0.3
		C134.2,187.1,133.9,187.8,133.7,188.4z M120.1,186.6l-0.2-1c0.7-0.1,1.3-0.3,2-0.4l0.2,1C121.4,186.4,120.8,186.5,120.1,186.6z
		 M142.8,186.5c-0.6-0.1-1.3-0.3-1.9-0.4l0.2-1c0.7,0.1,1.3,0.2,2,0.4L142.8,186.5z M127,185.6l-0.1-1c0.7-0.1,1.3-0.1,2-0.1l0.1,1
		C128.3,185.5,127.7,185.5,127,185.6z M135.9,185.5c-0.7-0.1-1.3-0.1-2-0.1v-1c0.7,0,1.3,0.1,2,0.1V185.5z M135.2,181.4h-1
		c0-0.2,0-0.3,0-0.5c0-0.5,0-1,0-1.5h1c0,0.5,0,1,0,1.5C135.2,181.1,135.2,181.2,135.2,181.4z M133.5,174.6
		c-0.1-0.6-0.3-1.3-0.5-1.9l1-0.3c0.2,0.6,0.4,1.3,0.5,2L133.5,174.6z M131.2,168.1c-0.3-0.6-0.6-1.1-1-1.7l0.8-0.5
		c0.4,0.6,0.7,1.2,1,1.8L131.2,168.1z M127.2,162.5c-0.4-0.5-0.9-0.9-1.4-1.4l0.7-0.7c0.5,0.5,1,0.9,1.4,1.4L127.2,162.5z
		 M121.9,158.1c-0.6-0.4-1.1-0.7-1.7-1.1l0.5-0.9c0.6,0.3,1.1,0.7,1.7,1.1L121.9,158.1z M115.9,154.8c-0.6-0.3-1.3-0.5-1.8-0.7
		l0.4-0.9c0.6,0.2,1.2,0.5,1.9,0.8L115.9,154.8z"/>
	<path class="st7" d="M173.7,210.8l-0.1-0.3c-0.1-0.2-0.2-0.4-0.3-0.6l0.9-0.4c0.1,0.2,0.2,0.4,0.3,0.6l0.1,0.3L173.7,210.8z"/>
	<path class="st2" d="M434.4,429.1v9.4h-54.2c0,0-1.1-6.2,13.3-7S434.4,429.1,434.4,429.1z"/>
	<path class="st6" d="M401.5,191.1c-2.2,0.3-4.4,0.5-6.6,0.5l0.3-0.9c1.1,1,2.2,2,3.3,3c0.5,0.5,1,1,1.6,1.6s1,1.1,1.5,1.7
		c-0.6-0.4-1.2-0.8-1.8-1.3s-1.2-0.9-1.8-1.4c-1.1-0.9-2.3-1.9-3.4-2.9l-0.9-0.9h1.3C397.1,190.7,399.3,190.8,401.5,191.1z"/>
	<path class="st6" d="M375.6,188.7c2.2-0.3,4.4-0.5,6.6-0.5l-0.3,0.9c-1.1-1-2.2-2-3.3-3c-0.5-0.5-1-1-1.6-1.6s-1-1.1-1.5-1.7
		c0.6,0.4,1.2,0.8,1.8,1.3s1.2,0.9,1.8,1.4c1.1,0.9,2.3,1.9,3.4,2.9l0.9,0.9h-1.3C380,189.2,377.8,189,375.6,188.7z"/>
	<path class="st6" d="M268.3,76.9c-1.8,1.2-3.8,2.3-5.8,3.3l-0.1-0.9c1.4,0.4,2.8,0.8,4.3,1.3c0.7,0.3,1.4,0.5,2.1,0.8
		s1.4,0.6,2.1,0.9c-0.7-0.1-1.5-0.2-2.2-0.3s-1.5-0.3-2.2-0.5c-1.4-0.4-2.9-0.7-4.3-1.2l-1.2-0.4l1.1-0.5
		C264.1,78.4,266.2,77.5,268.3,76.9z"/>
	<path class="st6" d="M249.6,79.5c2.2-0.3,4.4-0.5,6.6-0.5l-0.3,0.8c-1.1-1-2.2-2-3.3-3c-0.5-0.5-1-1.1-1.6-1.6s-1-1.1-1.5-1.7
		c0.6,0.4,1.2,0.8,1.8,1.3s1.2,0.9,1.8,1.4c1.1,0.9,2.3,1.9,3.3,2.9l0.9,0.9H256C254,80,251.8,79.8,249.6,79.5z"/>
	<ellipse class="st6" cx="395.2" cy="213" rx="1.1" ry="0.9"/>
	<path class="st7" d="M387.9,194.4c0.2,0.3-2.4,3.9-4.9,3c-1.4-0.7-2.2-2.2-2.1-3.7c0.1-0.1,0.6,1.4,1.9,1.9
		C384.9,196.6,387.7,194.2,387.9,194.4z"/>
	<path class="st5" d="M416.7,219.8c0,0-18.2,2.8-20.1,10.6s-3.5,95.5-3.5,95.5s30.4,1.6,38.8-3C431.9,322.8,436.4,235.9,416.7,219.8
		z"/>
	<path class="st8" d="M392.7,261.5c0,0,10.8-37.7,21.8-31.2s-9,52.2-12.2,53.7s-39.8-20.8-39.8-20.8l4.3-10.2L392.7,261.5z"/>
	<rect x="401.5" y="293.5" class="st8" width="18.7" height="7.8"/>
	<path class="st6" d="M417.7,291.3l-1-0.2c0.1-0.7,0.2-1.3,0.4-2l1,0.2C418,290,417.8,290.7,417.7,291.3z M419.2,284.5l-1-0.3
		c0.2-0.7,0.4-1.3,0.6-1.9l1,0.3C419.6,283.3,419.4,283.9,419.2,284.5z M421.4,278l-0.9-0.4c0.2-0.6,0.5-1.2,0.8-1.9l0.9,0.4
		C421.9,276.7,421.6,277.3,421.4,278z M477.6,272.3c-0.7-0.1-1.4-0.2-2-0.3l0.2-1c0.6,0.1,1.3,0.2,1.9,0.3L477.6,272.3z
		 M482.7,272.2l-0.1-1c0.6-0.1,1.3-0.2,1.9-0.4l0.2,1C484,272,483.4,272.1,482.7,272.2z M424.3,271.7l-0.9-0.5
		c0.3-0.6,0.6-1.2,1-1.8l0.9,0.5C424.9,270.5,424.6,271.1,424.3,271.7z M470.8,270.2c-0.6-0.3-1.2-0.7-1.8-1l0.5-0.8
		c0.6,0.4,1.1,0.7,1.7,1L470.8,270.2z M489.5,270.1l-0.4-0.9c0.6-0.3,1.2-0.6,1.7-0.9l0.5,0.9C490.7,269.5,490.1,269.8,489.5,270.1z
		 M495.4,266.1l-0.7-0.7c0.5-0.4,1-0.9,1.4-1.4l0.7,0.7C496.4,265.1,495.9,265.6,495.4,266.1z M465,266c-0.5-0.5-0.9-1-1.4-1.5
		l0.8-0.7c0.4,0.5,0.9,1,1.3,1.4L465,266z M427.9,265.7l-0.8-0.6c0.4-0.6,0.8-1.1,1.2-1.6l0.8,0.6
		C428.7,264.7,428.3,265.2,427.9,265.7z M499.9,260.5L499,260c0.3-0.6,0.6-1.1,0.9-1.7l0.9,0.4C500.6,259.3,500.2,260,499.9,260.5z
		 M460.6,260.5c-0.4-0.6-0.7-1.1-1.1-1.7l0.9-0.5c0.3,0.6,0.7,1.1,1,1.7L460.6,260.5z M432.2,260.3l-0.8-0.7c0.4-0.5,0.9-1,1.4-1.5
		l0.7,0.7C433,259.3,432.6,259.8,432.2,260.3z M437,255.3l-0.7-0.7c0.5-0.5,1-0.9,1.5-1.3l0.6,0.8C438,254.4,437.5,254.9,437,255.3z
		 M457.2,254.2c-0.3-0.6-0.5-1.3-0.7-1.9l0.9-0.3c0.2,0.6,0.5,1.2,0.7,1.8L457.2,254.2z M502.3,253.8l-1-0.1
		c0.1-0.6,0.1-1.3,0.1-1.9h1C502.4,252.5,502.4,253.1,502.3,253.8z M442.4,250.9l-0.6-0.8c0.5-0.4,1.1-0.8,1.6-1.2l0.6,0.8
		C443.5,250.2,442.9,250.5,442.4,250.9z M455.2,247.4c-0.1-0.7-0.2-1.4-0.3-2l1-0.1c0.1,0.6,0.1,1.3,0.2,1.9L455.2,247.4z
		 M448.2,247.1l-0.5-0.9c0.6-0.3,1.2-0.7,1.8-1l0.5,0.9C449.4,246.5,448.8,246.8,448.2,247.1z M500.5,247.1
		c-0.2-0.5-0.5-1.1-0.8-1.6l-0.1-0.1l0.9-0.5l0.1,0.2c0.3,0.5,0.6,1.1,0.8,1.7L500.5,247.1z M454.4,244l-0.4-0.9
		c0.6-0.3,1.2-0.5,1.8-0.8l0.4,0.9C455.6,243.4,455,243.7,454.4,244z M496.4,242c-0.5-0.3-1.1-0.7-1.7-1l0.5-0.9
		c0.6,0.3,1.2,0.7,1.8,1.1L496.4,242z M460.9,241.4l-0.3-0.9c0.6-0.2,1.3-0.4,1.9-0.6l0.3,1C462.1,241,461.5,241.2,460.9,241.4z
		 M456.1,240.4l-1-0.1c0.1-0.7,0.2-1.3,0.3-2l1,0.2C456.3,239.1,456.2,239.8,456.1,240.4z M467.6,239.6l-0.2-1
		c0.7-0.1,1.3-0.3,2-0.4l0.2,1C468.9,239.3,468.2,239.4,467.6,239.6z M490.1,239.2c-0.6-0.2-1.3-0.3-1.9-0.4l0.2-1
		c0.7,0.1,1.3,0.3,2,0.5L490.1,239.2z M474.4,238.4l-0.1-1c0.7-0.1,1.3-0.1,2-0.2l0.1,1C475.7,238.3,475.1,238.3,474.4,238.4z
		 M483.3,238.2c-0.6,0-1.3-0.1-2-0.1v-1c0.7,0,1.4,0,2,0.1V238.2z M457.9,233.8l-0.9-0.4c0.3-0.6,0.6-1.2,0.9-1.8l0.9,0.5
		C458.5,232.7,458.2,233.3,457.9,233.8z M461.5,228l-0.8-0.6c0.4-0.5,0.8-1.1,1.3-1.6l0.8,0.6C462.3,226.9,461.9,227.4,461.5,228z
		 M466.1,222.9l-0.7-0.7c0.5-0.5,1-0.9,1.5-1.3l0.7,0.8C467.1,222,466.6,222.4,466.1,222.9z M471.5,218.5l-0.6-0.8
		c0.5-0.4,1.1-0.8,1.7-1.1l0.6,0.8C472.6,217.7,472.1,218.1,471.5,218.5z M477.4,214.7l-0.5-0.9c0.6-0.3,1.2-0.7,1.8-1l0.5,0.9
		C478.6,214.1,478,214.4,477.4,214.7z M483.6,211.5l-0.4-0.9c0.6-0.3,1.2-0.6,1.8-0.8l0.4,0.9C484.8,210.9,484.2,211.2,483.6,211.5z
		 M490,208.8l-0.4-0.9c1.2-0.5,1.9-0.7,1.9-0.7l0.3,1C491.9,208.1,491.2,208.3,490,208.8z"/>
	<ellipse class="st6" cx="409.8" cy="293.6" rx="1.7" ry="5.7"/>
	<path class="st6" d="M255.2,92.5c-0.8,0.9,0.5,1.6-0.3,1.8c-1.4,0.5-7.9-0.6-7.8-2c0.1-1.1,4.1-1.8,6.4-1.9s5-0.1,5.2,0.3
		S256.2,91.4,255.2,92.5z"/>
	<path class="st7" d="M255.7,86.4c-0.2,0.3,2.4,3.9,4.9,3c1.4-0.7,2.2-2.2,2.1-3.7c-0.1-0.1-0.6,1.4-1.9,2
		C258.6,88.6,255.9,86.1,255.7,86.4z"/>
	<path class="st6" d="M247.4,408.8l7.8-2.8l-7.6-178.2c-10.5,0-21.1-0.8-31.5-2.3c-12.1-1.8-24.1-4.5-35.8-8.2L160.5,410h4.3l0,0
		l-6.9,11.3l-23.5,14.8h28l10.8-5.7v3.2h8.1l-1.8-23.5h0.7l34.6-158.2L232.9,414l3.3-1.2v19.3h17.2l1-2.4l18.6,4.8h18.7L247.4,408.8
		z"/>
	<path class="st8" d="M112.6,162.4c-0.1,0-0.1,0-0.2,0c-1.7,0.2-11.3-20.5-15.7-25.5c-4.4-5-16.7-1.3-16.7-1.3l2.8,5.2
		c5.3,0.3,9.5,4.7,13.8,15s16.8,12.8,16.8,12.8l0,0c0,0,5.2-4.4,7.2-6.4c1.2-1.2,2.8-1.9,4.5-2l0.8-6.5
		C115.7,153.6,113.2,159.7,112.6,162.4z"/>
	<path class="st0" d="M104.8,139.1c2.1-3.1,3.6-5.8,4.7-7.8c0.8-1.6,0.9-1.9,1.4-2.2c2.3-1.2,6.4,2.7,12.1,2c7.2-0.9-0.9,7-6.9,3.9
		c0,0,6.1,0.2,5.1,1.9s-6,2.5-8.3,0.7c0,0,3,0.9,1.7,2.4s-5.1-0.6-5.7-1.9c-1.6,1.6-3.1,2.4-3.8,1.9
		C105.1,140.1,104.8,139.8,104.8,139.1z"/>
	<path class="st5" d="M125.9,153.6c0,0-5.5,0.7-13-10.7s-10.5-15.3-21.3-16.5l-11.7,9.2c0,0,8.8-0.3,15.5,10.7s5.5,15,17,17.5
		C112.4,163.8,117.4,154.6,125.9,153.6z"/>
	<path class="st0" d="M95,148.8c-4.1-2.1-7.4-4-9.8-5.5c-1.9-1.1-2.2-1.5-2.9-1.5c-3.3,0.1-5.3,6.9-11.8,9.6c-8.3,3.5,5.3,7,9.8,0
		c0,0-6.5,4-4.3,5.2s8-1,9.3-4.3c0,0-2.7,2.8-0.3,3.7s5.2-3.8,5-5.5c2.8,0.8,4.8,0.6,5.3-0.3C95.3,150.1,95.4,149.6,95,148.8z"/>
	<path class="st8" d="M106.2,154.2c-3,0-6.6-2.9-8.6-7.3c-2.4-5.3-1.7-10.8,1.6-12.3l0,0c1.6-0.7,3.6-0.4,5.6,1
		c1.9,1.3,3.6,3.4,4.7,6c1.1,2.5,1.6,5.2,1.3,7.5c-0.3,2.4-1.4,4.1-3,4.9C107.4,154.1,106.8,154.2,106.2,154.2z M99.7,135.5
		c-2.8,1.3-3.3,6.2-1.2,11c2.2,4.8,6.2,7.7,9,6.4c1.3-0.6,2.2-2,2.4-4.1c0.3-2.1-0.2-4.6-1.3-7c-1.1-2.4-2.6-4.3-4.4-5.5
		C102.6,135.2,101,134.9,99.7,135.5L99.7,135.5z"/>
	<path class="st8" d="M100.3,147.7l0.8-1c-0.9-1.6-1-3.1-0.4-3.9s1.6-0.6,2.9,0.5c1.2,0.9,1.7,1.2,2.1,0.7s0.3-1.2-0.5-2.4
		c-0.4-0.6-0.9-1.1-1.6-1.5l0.2-1c0.6,0.4,1.2,0.9,1.6,1.6l0.7-0.9l0.6,0.9l-0.7,1c0.8,1.5,1,2.9,0.4,3.7s-1.6,0.4-3-0.8
		c-1-0.8-1.6-1-2-0.5s-0.2,1.6,0.5,2.7c0.5,0.7,1.1,1.3,1.8,1.7l-0.2,1c-0.8-0.5-1.4-1.1-1.9-1.8l-0.7,0.9L100.3,147.7z"/>
	<path class="st8" d="M502.2,185.3c-4.4,5-14.1,25.7-15.8,25.5c-0.1,0-0.1,0-0.2,0c-0.6-2.7-3.1-8.9-13.3-8.9l0.8,6.5
		c1.7,0.1,3.3,0.8,4.5,2c2,2,7.1,6.4,7.2,6.4l0,0c0,0,12.5-2.4,16.8-12.8c4.3-10.3,8.5-14.7,13.8-15l2.8-5.2
		C518.9,184,506.6,180.3,502.2,185.3z"/>
	<path class="st0" d="M494,187.5c-2.1-3.1-3.6-5.8-4.7-7.8c-0.9-1.6-0.9-1.9-1.4-2.2c-2.3-1.2-6.4,2.7-12.1,2.1
		c-7.2-0.9,0.9,7,6.9,3.9c0,0-6.1,0.2-5.1,1.9s6,2.5,8.3,0.7c0,0-3,0.9-1.7,2.4s5.1-0.6,5.7-1.9c1.6,1.6,3.1,2.4,3.8,1.9
		C493.7,188.5,494,188.2,494,187.5z"/>
	<path class="st5" d="M472.9,202c0,0,5.5,0.7,13-10.7s10.5-15.3,21.3-16.5l11.7,9.2c0,0-8.8-0.3-15.5,10.7s-5.5,15-17,17.5
		C486.4,212.2,481.4,203,472.9,202z"/>
	<path class="st0" d="M503.8,197.3c4.1-2.1,7.4-4,9.9-5.5c1.9-1.1,2.2-1.5,2.9-1.5c3.2,0.1,5.2,6.9,11.8,9.6c8.3,3.5-5.3,7-9.8,0
		c0,0,6.5,4,4.3,5.2s-8-1-9.3-4.3c0,0,2.7,2.8,0.3,3.7s-5.2-3.8-5-5.5c-2.8,0.8-4.9,0.6-5.3-0.3
		C503.5,198.5,503.4,198.1,503.8,197.3z"/>
	<path class="st8" d="M492.6,202.6c-0.6,0-1.2-0.1-1.8-0.4c-3.3-1.5-4.1-7-1.7-12.3s7-8.4,10.4-6.9c3.3,1.5,4.1,7,1.7,12.3
		C499.1,199.7,495.6,202.6,492.6,202.6z M497.6,183.6c-2.6,0-5.8,2.7-7.6,6.7c-2.2,4.8-1.7,9.8,1.2,11c2.8,1.3,6.9-1.6,9-6.4
		c2.2-4.8,1.7-9.8-1.2-11C498.6,183.7,498.1,183.6,497.6,183.6z"/>
	<path class="st8" d="M497.8,197l-0.7-1c-0.5,0.7-1.1,1.3-1.9,1.8l-0.2-1c0.7-0.4,1.3-1,1.8-1.7c0.7-1,0.9-2.1,0.5-2.6s-1-0.3-2,0.5
		c-1.3,1.1-2.3,1.6-3,0.8s-0.5-2.2,0.4-3.7l-0.7-0.9l0.6-0.9l0.7,0.9c0.4-0.6,1-1.1,1.6-1.6l0.2,1c-0.6,0.4-1.1,0.9-1.5,1.5
		c-0.8,1.1-0.8,2-0.5,2.4s1,0.2,2.1-0.7c1.4-1.1,2.3-1.4,2.9-0.5s0.5,2.3-0.4,3.9l0.8,1L497.8,197z"/>
	<polygon class="st9" points="236.8,129 232.9,213.5 219.7,225.5 211,209.9 232.9,128.3 230.6,121.3 236.8,118.2 240.5,121.3 	"/>
	<ellipse transform="matrix(0.3973 -0.9177 0.9177 0.3973 69.1578 506.0126)" class="st5" cx="419.8" cy="200.4" rx="11" ry="5.8"/>
	
		<rect x="168.8" y="207.4" transform="matrix(0.9769 -0.2135 0.2135 0.9769 -40.5895 42.8598)" class="st7" width="18.7" height="3.9"/>
	<path class="st7" d="M294.8,139.5c2.9,4.7,5.5,5.9,7.4,6c0,0,0.9,0,6-1.2l0,0c-1,2.9-4.4,6.8-8.8,6.9c-2.7,0.1-6.1-1.3-7-3.9
		c-0.3-0.9-0.1-2.2,0.3-5c0.3-2.1,0.6-2.9,1.2-3C294.2,139.2,294.5,139.3,294.8,139.5z"/>
	<path class="st2" d="M359.6,141.7l-66.2-39.4l-5.7,8.3l11.2,16.2c-1.2,1-2.4,2.3-3,4c-0.5,1.5-0.8,3.8,1.5,8.8
		c3,6.6,6.1,13.5,12.3,13.9h0.5c2.2,0,4.2-0.9,5.9-2l15.9,23L359.6,141.7z M310.1,150.6h-0.3c-4.4-0.3-7.1-6.3-9.7-12.1
		c-2.1-4.6-1.6-6.1-1.4-6.6c0.4-1.1,1.1-1.9,1.9-2.5l13.7,19.7C313,150,311.6,150.6,310.1,150.6z"/>
	<path class="st1" d="M297,133c-1.9,0.9-3.7,1.9-5.4,3c-0.2,0.7-0.3,1.5-0.3,2.2c-0.1,4.9,3.4,10.4,6.7,10.8
		c1.1,0.1,1.9-0.3,3.6-1.3s5.3-3.4,6.3-2.8c0.1,0.1,0.2,0.1,0.3,0.1c0.5-0.1,0.6-1.4,0.6-1.9c0-1.8-1.9-2.6-4.2-5.6
		s-2.3-4.8-3.9-5.4C300.1,131.9,299.4,131.8,297,133z"/>
</g>
</svg>
