<?xml version="1.0" encoding="UTF-8"?>
<svg xmlns="http://www.w3.org/2000/svg" xmlns:xlink="http://www.w3.org/1999/xlink" width="32pt" height="32pt" viewBox="0 0 32 32" version="1.1">
<g id="surface8052855">
<path style=" stroke:none;fill-rule:nonzero;fill:rgb(58.431373%,64.705882%,65.098039%);fill-opacity:1;" d="M 15.554688 2.671875 C 8.828125 2.894531 3.164062 8.335938 2.699219 15.050781 C 2.207031 22.15625 7.289062 28.160156 14.007812 29.167969 L 14.007812 19.535156 L 11.855469 19.535156 C 10.886719 19.535156 10.105469 18.75 10.105469 17.78125 C 10.105469 16.8125 10.886719 16.03125 11.855469 16.03125 L 14.007812 16.03125 L 14.007812 13.699219 C 14.007812 9.835938 15.886719 8.140625 19.097656 8.140625 C 19.574219 8.140625 19.980469 8.152344 20.324219 8.167969 C 21.171875 8.210938 21.832031 8.917969 21.832031 9.765625 C 21.832031 10.652344 21.113281 11.367188 20.230469 11.367188 L 19.640625 11.367188 C 18.277344 11.367188 17.800781 12.660156 17.800781 14.113281 L 17.800781 16.03125 L 20.296875 16.03125 C 21.085938 16.03125 21.6875 16.734375 21.566406 17.511719 L 21.421875 18.445312 C 21.324219 19.074219 20.785156 19.535156 20.152344 19.535156 L 17.800781 19.535156 L 17.800781 29.199219 C 24.3125 28.316406 29.332031 22.75 29.332031 16 C 29.332031 8.488281 23.121094 2.429688 15.554688 2.671875 Z M 15.554688 2.671875 "/>
</g>
</svg>
