<?xml version="1.0" encoding="utf-8"?>
<!-- Generator: Adobe Illustrator 23.0.5, SVG Export Plug-In . SVG Version: 6.00 Build 0)  -->
<svg version="1.1" id="Camada_1" xmlns="http://www.w3.org/2000/svg" xmlns:xlink="http://www.w3.org/1999/xlink" x="0px" y="0px"
	 viewBox="0 0 401.1 382.8" style="enable-background:new 0 0 401.1 382.8;" xml:space="preserve">
<style type="text/css">
	.st0{fill:#CCCCCC;}
	.st1{fill:#787487;}
	.st2{fill:#595468;}
	.st3{fill:#5A5569;}
	.st4{fill:#252233;}
	.st5{opacity:0.5;fill:#5A5569;enable-background:new    ;}
	.st6{opacity:0.5;fill:#252233;enable-background:new    ;}
	.st7{fill:#87B786;}
	.st8{fill:#638C62;}
	.st9{opacity:0.5;fill:#6A9599;enable-background:new    ;}
	.st10{fill:#242D4A;}
	.st11{fill:#6A9599;}
	.st12{fill:#B5778F;}
	.st13{fill:#F2F2F2;}
</style>
<title>Prancheta 35</title>
<g>
	<g>
		<path class="st0" d="M177.3,191.9c0,0,9.8-21.8-5.6-30c0,0,27.5-1.4,20.6,19.1S177.3,191.9,177.3,191.9z"/>
		<path class="st0" d="M120.5,193.8c3.3,0.6,5.4,3.7,4.8,7c-0.3,1.4-1,2.6-2.1,3.5c-3.4,2.7-6.7,5.6-9.8,8.7
			c-9.4,9.3-17.1,20.2-22.7,32.2c-1.5,3.3-2.8,6.6-3.9,9.8c-1.1,3.1-4.5,4.7-7.6,3.7c-0.2-0.1-0.4-0.2-0.6-0.3
			c-26-12.7-35-26.8-38.2-37.6c-5.6-18.6,2-39.5,0.4-50.2c-0.4-2.8-1.4-4.9-3.5-6c-3.7-2.2-8.3,0.1-11.4,0.8
			c-1.4,0.3-2.5,0.3-3.1-0.5c-3.2-4.1,10.9-23.2,21.1-28.1c2.9-1.4,6.4-0.1,7.8,2.8l2.8,5.6c1.4,2.9,5,4.1,7.9,2.6
			c0.3-0.2,0.6-0.3,0.9-0.5l0.1-0.1c4-3.1,8.9-5,14-5.3c10.3-0.5-4-13.6-1.5-17.2c0.4-0.4,0.9-0.7,1.5-0.8c5.8-1.5,25.9-2.7,27,2.9
			c0.8,4.4-11.1,6.8-11.1,13.5s11.7,7.4,15.2,16.6c4.3,11.2-9.3,20.2-5.1,28.5C106,190.3,113.3,192.6,120.5,193.8z"/>
		<path class="st1" d="M203.2,150.3c-14.6-8.1-23.4-16.4-21.8-20.9c1.9-5.1,17.1-3.9,20.1-3.7c0.5-1.5,0.8-3,1.1-4.6
			c0.1-0.9,0.2-1.8,0.3-2.8c0-0.2,0-0.3,0-0.4c0.1-3.6-0.5-7.1-1.7-10.4L216,96c1.1,4.1,2.4,8.1,3.9,12c0.6,1.5,1.3,2.9,2.1,4.3
			c0.3,0.5,0.6,1,0.9,1.5c1.5,2.4,3.6,4.2,6.2,5.2c7.8,2.8,8.4-3.2,20.5-1.7c0.9,0.1,7.1,0.8,7.9,3.7
			C258.6,124.9,254.7,129.4,203.2,150.3z"/>
		<path class="st2" d="M222,112.3c-3.9,3.6-8.8,5.8-14.1,6.3c-1.7,0.1-3.3,0.1-5-0.2c0-0.2,0-0.3,0-0.4c0.1-3.6-0.5-7.1-1.7-10.4
			L216,96c1.1,4.1,2.4,8.1,3.9,12C220.5,109.5,221.2,110.9,222,112.3z"/>
		<path class="st3" d="M244,196.4c0,0,46.8,1.9,72.1,21.3s42.7,102.3,33.8,113.4s-134.6,45.5-211.4,33.7S15.6,341,12.9,316.7
			s49.1-83.9,72.9-91.3s31.3-34.4,47.1-34.7S203.5,171.8,244,196.4z"/>
		<path class="st4" d="M279.7,80.5c-1.8,3-4.2,5.6-7.1,7.5c-3.9,2.5-8.6,3.5-13.2,2.8c-4.4-0.6-8.6-2.2-12.4-4.6
			c1-0.7,1.8-1.5,2.6-2.4c3.4-3.6,8.3-11.1,4.1-21.2c-2.1-5.1-6.1-10-10.4-14.3c-5-4.9-10.5-9.2-16.4-13c3.2-6.2,7.5-11.7,12.8-16.2
			c3.1-2.6,5.1-4.2,8.1-4.9c8.3-1.8,16.3,5.6,19.4,8.4C285.1,39.2,287.1,68.5,279.7,80.5z"/>
		<path class="st4" d="M224.9,63.9c1.4,6.3,3.6,12.3,6.6,18c4.6,8.2,8.7,11.3,8.7,11.3s-12.1-2.8-18.5-16.6S224.9,63.9,224.9,63.9z"
			/>
		<path class="st5" d="M244,196.4c0,0,46.8,1.9,72.1,21.3s42.7,102.3,33.8,113.4s-134.6,45.5-211.4,33.7S15.6,341,12.9,316.7
			s49.1-83.9,72.9-91.3s31.3-34.4,47.1-34.7S203.5,171.8,244,196.4z"/>
		<path class="st6" d="M79.2,269.4c-4.4-5.8-9.8-14.8-7.1-22.8c2.8-8.3,12.7-11.2,23.1-15.4c26.3-10.8,28-18.9,46-27
			c43.8-19.9,94.1,0.6,113.5,8.6c15,6.1,48.9,20.1,49.9,40.8c0.1,3.7-0.7,7.3-2.5,10.6c-12.6,25-39.4,36.1-39.4,36.1
			S99.3,290.5,79.2,269.4z"/>
		<path class="st7" d="M242.5,309.9c-3.7,0.6-7.5,0.7-11.2,0.4c-21.6-1.1-60.5-10.3-88.6-19.9c-19.4-6.7-33.6-13.6-33.4-18.5
			c0.4-13.3,71-30.1,71-30.1l4.1-24h64c0,0,29.8,24.2,33.4,46.5S267.2,304.9,242.5,309.9z"/>
		<path class="st1" d="M302.2,225.4c-0.6,0.7-1.4,1.4-2.2,2.2c-3,2.8-6.2,5.3-9.5,7.6c-9.2,6-29,7.6-39.4,8.4
			c-6.8,0.5-14.7,0.9-14.7,0.9c-3.2,0.1-5.8,0.2-7.6,0.3l-4.2-9.6c8.3-1.9,16.4-4.3,24.4-7.1c9.2-3.2,18.2-6.9,26.9-11.1
			c1.6-0.8,3.2-1.6,4.8-2.4l-1.2-2.6l0,0c-3.9-8.6-8-17.7-11.9-26.1c-1.2-2.6-2.8-6.2-4.4-9.8l-4.7-10.5c1-2.9,2.2-5.6,3.6-8.3
			c0.8-1.7,1.8-3.3,2.9-4.8c3.9-4,7.2-10.5,10-12.8c0.3-0.2,0.6-0.4,1-0.6c0.3,0.8,0.7,1.9,1.2,3.2c1.2,3.2,2.8,7.7,4.7,13.1
			C289.7,178.1,301.7,215.7,302.2,225.4z"/>
		<polygon class="st1" points="193.4,150.3 180.6,185.8 166.3,225.4 148,223.7 166.6,158.4 167.3,156.2 170.2,145.9 171.7,146.2 		
			"/>
		<path class="st7" d="M180,128.4c11.4,7.8,25.5,10.5,39,7.8c14-3,27.1-9.5,37.9-18.9c10.1,7.3,18.7,16.3,25.6,26.6
			c-1.5,4.2-3.5,8.2-6.1,11.9c-4.7,6.5-10.8,11.7-18,15.3l-2.7-7.3c-5.5,18.3-8.1,37.4-7.7,56.6c-20.9,4.7-42.5,4.7-63.3,0
			c2.3-5.8,4.5-14.3,2-23.4c-1.3-4.8-3.3-6.7-5.4-12.3c-2.6-6.9-3.7-14.2-3.3-21.5c-5.8-2-10.4-6.4-12.7-12.1
			c1.6-3.5,2.9-6.3,3.7-8.1c2.5-5.7,3.2-7.5,5.1-9.8C175.7,131.2,177.7,129.6,180,128.4z"/>
		<path class="st8" d="M134.7,262.5c15.9,20.7,28.1,23.5,35.3,23.1c2.8-0.2,3.9-0.7,29.4-12.3c16.3-7.4,19.1-8.6,23.8-10.3
			c15.7-5.6,25.7-6.4,25.6-7.2C248.7,254.6,224.4,255.4,134.7,262.5z"/>
		<path class="st4" d="M113.7,262.9l21.3-14c0.3-0.2,0.6-0.3,1-0.3l96.9,2.2c0.9,0,1.7,0.8,1.7,1.7c0,0.6-0.3,1.1-0.8,1.4
			l-25.9,15.2c-0.3,0.2-0.6,0.2-0.9,0.2l-92.4-3.4c-0.9-0.1-1.6-0.9-1.6-1.8C113.1,263.7,113.3,263.2,113.7,262.9z"/>
		<path class="st0" d="M385.9,313.5c-2.2-4.4-6.7-3.6-10.8-1.5l1.2-9.8c0-0.1,0-0.2,0-0.3c0-2.9-8.7-5.2-19.4-5.2
			s-19.4,2.3-19.4,5.2c0,0.1,0,0.2,0,0.3l5,41.3l0,0c0,2.9,6.4,5.2,14.3,5.2s14.3-2.3,14.3-5.2l0,0l1.2-9.9
			C377.8,330.1,389.6,321,385.9,313.5z M373.2,328.2l1.4-11.4c2.7-2.1,5.5-3.3,7-1.1C384.1,319.6,376.4,325.8,373.2,328.2
			L373.2,328.2z"/>
		<path class="st9" d="M340.2,278.3c4.9-5,13.9-3.9,15.2-9.1c0.2-0.8,0.2-1.6,0-2.4c-1.9-5.9-18.7-4.5-12.9-13.8
			c6.4-10.4,15-10.4,15-10.4s-14.4,9.3-5.4,12.1c9,2.7,23.1,5.4,24.2,19.9c0.9,11.8-9.8,11.8-10.2,13.9c-0.1,0.5,0.4,0.8,1.6,1.9
			c1.6,1.5,4.6,4.5,5.3,7.5c0.3,1.1,0.3,2.3,0,3.4c-1.5,4.9-11.2,6-16.7,5.9c-5-0.1-11.2-0.3-15.6-4.9
			C334.7,295.8,334.9,283.7,340.2,278.3z"/>
		<ellipse class="st10" cx="357" cy="303.3" rx="14.3" ry="3.9"/>
		<path class="st1" d="M233.5,75.5c0,17.6-11.7,38.8-28.6,40.1c-9.4,0.7-18.4-4.8-23.6-11.4c-3.2-4.1-3.7-12.4-5.1-28.6
			c-0.9-10.9-1.3-16.5-0.3-19.5c3.6-11.1,16.3-21.3,29-20.5C222.8,36.4,233.5,58.7,233.5,75.5z"/>
		<path class="st4" d="M198.5,78.5c0.4-1.3,1.3-2.4,2.3-3.3c1.1-0.9,2.4-1.5,3.7-1.8c1.4-0.3,2.7-0.3,4.1-0.2c0.7,0.1,1.3,0.2,2,0.4
			c0.6,0.2,1.2,0.5,1.9,0.8l-0.8,0.1c0.6-0.2,1.2-0.4,1.9-0.6c0.7-0.2,1.3-0.3,2-0.4c-0.4,0.5-0.9,1-1.4,1.5c-0.5,0.5-1,0.9-1.5,1.3
			l-0.2,0.1h-0.7c-0.6-0.1-1.2-0.1-1.8-0.2s-1.1-0.1-1.7-0.1c-1.1,0-2.2,0-3.3,0.1C202.8,76.6,200.5,77.4,198.5,78.5z"/>
		<path class="st4" d="M188,79.7c-2-1.2-4.3-1.9-6.6-2.2c-1.1-0.1-2.2-0.1-3.3-0.1c-0.6,0-1.1,0.1-1.7,0.1s-1.1,0.2-1.8,0.2
			l-0.7,0.1l-0.2-0.1c-0.5-0.4-1-0.8-1.5-1.3c-0.5-0.5-1-1-1.4-1.5c0.7,0.1,1.3,0.2,2,0.4c0.6,0.2,1.3,0.4,1.9,0.6l-0.8-0.1
			c0.6-0.3,1.2-0.5,1.8-0.8c0.7-0.2,1.3-0.4,2-0.4c1.4-0.2,2.8-0.2,4.1,0.2c1.4,0.3,2.6,0.9,3.7,1.8C186.8,77.3,187.6,78.4,188,79.7
			z"/>
		<path class="st11" d="M251.4,46.8c-5.5-10.9-18.1-18.2-18.1-18.2c-0.6-0.7-1.2-1.3-1.9-1.9l5.1-7C248.4,26.5,251,39.1,251.4,46.8z
			"/>
		
			<ellipse transform="matrix(0.9193 -0.3936 0.3936 0.9193 -21.7532 88.7842)" class="st2" cx="205.6" cy="97.4" rx="5.9" ry="3.9"/>
		<path class="st4" d="M197.2,99.5c1.4-0.3,2.8-0.6,4.2-1c1.4-0.4,2.7-0.9,4-1.5c1.3-0.6,2.6-1.3,3.7-2.1c1.2-0.8,2.3-1.7,3.4-2.7
			c-0.8,1.2-1.8,2.4-3,3.3c-0.6,0.5-1.2,0.9-1.8,1.3c-0.6,0.4-1.3,0.8-2,1C203.1,99.1,200.1,99.7,197.2,99.5z"/>
		<path class="st3" d="M198,88.5c0.3,0.5-1.7,3.6-4.5,3.6s-4.9-3.2-4.6-3.6s1.6,1,4.2,1.1C196,89.7,197.7,88.2,198,88.5z"/>
		<path class="st4" d="M197.6,67.7c0.8-0.5,1.7-1,2.7-1.4c0.9-0.4,1.8-0.7,2.8-1c1.9-0.6,3.9-0.8,5.8-0.6c0.5,0,1,0.1,1.4,0.2
			l1.4,0.4c0.9,0.3,1.8,0.7,2.6,1.3c0.4,0.2,0.8,0.5,1.2,0.8l1.1,0.9c0.4,0.3,0.7,0.6,1,1l0.9,1.1l-1-0.9c-0.3-0.3-0.7-0.6-1.1-0.9
			l-1.1-0.8c-0.4-0.2-0.8-0.4-1.2-0.6c-0.8-0.4-1.7-0.6-2.5-0.8l-1.3-0.2c-0.4,0-0.9,0-1.3,0c-1.7,0.1-3.4,0.5-5,1.3
			c-1.6,0.7-3,1.6-4.4,2.7L197.6,67.7z"/>
		<path class="st4" d="M185.7,71.6c-0.4-0.3-0.7-0.5-1.1-0.8c-0.4-0.2-0.9-0.4-1.3-0.6c-0.9-0.3-1.9-0.5-2.9-0.5c-1,0-2,0.2-3,0.6
			c-0.5,0.2-1,0.4-1.4,0.7c-0.5,0.3-0.9,0.6-1.3,0.9c0.7-0.9,1.5-1.7,2.4-2.3c1-0.7,2-1.2,3.2-1.4c1.2-0.3,2.4-0.4,3.6-0.2
			c0.6,0.1,1.2,0.2,1.8,0.3c0.6,0.2,1.2,0.4,1.8,0.7L185.7,71.6z"/>
		<path class="st12" d="M209.5,231.3c0,0-8.6-7.6-5.5-9.6s10.7,6.1,10.7,6.1L209.5,231.3z"/>
		<path class="st2" d="M287.8,217.8c-3.6-2.1-7.7-3-11.8-2.4c1.1-0.5,2.2-1.1,3.2-1.6c-0.3-0.6-0.5-1.1-0.8-1.7L287.8,217.8z"/>
		<ellipse class="st2" cx="229.1" cy="78.2" rx="2.2" ry="4.6"/>
		<path class="st4" d="M251.4,46.8c-5.5-10.9-18.1-18.2-18.1-18.2c-0.6-0.7-1.2-1.3-1.9-1.9c-3.8-3.5-13.4-10.7-26.3-9.9
			c-8.7,0.5-14.1,5.6-17.1,10.5c-0.6,1-1.1,1.9-1.6,2.8c0,0.1-0.1,0.2-0.1,0.2c-0.1,0-0.1,0-0.2,0c-9.3-0.5-15.4,3.3-15.4,3.3
			s1.2-0.2,3.6,0c-0.3,0.2-0.6,0.5-0.9,0.7c-2.5,2.4-3.4,6-1.5,11.4c8.2,22.8,41.9,0.9,45.8-1.8l0.3,0.2c-0.4,3-2.3,20.9,4.3,28.7
			c-0.3,14,4.5,22.2,4.5,22.2s-1.1-4.8-1.1-14.2c0.1-3.4,0.3-6.8,0.7-10.2c0.4-0.3,0.9-0.5,1.3-0.7c0.7-0.2,2.9-1.1,4.4,0
			c1,0.7,1.4,2,1.3,5.4c-0.2,5.1-1.2,10.1-2.9,14.8c0.9-1.3,1.7-2.6,2.4-3.9c3.4-1.3,14.2-6.7,19.8-23
			C254.7,57.9,254.2,51.9,251.4,46.8z"/>
		<path class="st1" d="M147.6,311c-4.2,1.8-6.2,0.1-13.3,0.4c-9.1,0.3-9.9,3.5-17.8,3.2c-3.3,0-6.6-0.4-9.8-1.3
			c-1.8-0.6-3.5-1.4-5-2.5c-7.9-5.6-12.5-18.4-8.9-23.2c0.7-0.9,1.8-1.5,3-1.6c4.3-0.8,12.6,1.1,25.8,4.1c5.7,1.3,9.5,2.4,17.2,4.8
			c15.5,4.9,16.1,5.9,16.3,6.9C155.9,304.9,151.7,309.2,147.6,311z"/>
		<path class="st1" d="M213,302.5l-7.1,20.2l-25.5-8.5l-11.5-3.9c-7.1-17.4,2.7-20.6,2.7-20.6l17.7,5.5L213,302.5z"/>
		<path class="st7" d="M68.1,264c-0.3-0.9-3.7-10.1,1-17c7-10.4,26.2-6.8,28-6.4c7.1,1.4,10,4,31.7,18.5c0,0,7.3,4.9,18.9,12.5
			c8.6,5.6,21,13.4,36.7,22.2c0.3,3.5-0.1,7.1-1.4,10.4c-2.1,5.4-6.1,9.8-11.1,12.5C126.1,296.1,98.4,285,98.4,285
			C83.6,279.1,72.2,274.9,68.1,264z"/>
		<path class="st1" d="M239.1,329.1c-0.1,0.8-0.3,1.7-0.4,2.5c0,0,0,0.1,0,0.1c-0.2,1.1-0.5,2.3-0.9,3.5l0,0
			c-0.3,1.2-0.7,2.4-1.2,3.6c-0.2,0.5-0.3,0.9-0.5,1.4c-0.1,0.3-0.2,0.6-0.4,0.9s-0.3,0.8-0.5,1.1c-0.3,0.8-0.7,1.5-1,2.2
			c-0.2,0.4-0.4,0.7-0.5,1.1s-0.4,0.7-0.5,1s-0.4,0.7-0.6,1c-1.1,2-2.3,3.8-3.8,5.5c-0.1,0.1-0.2,0.2-0.3,0.3s-0.4,0.4-0.6,0.6
			c-1.9,1.9-3.7,2.5-5.1,1.1c-1.6-1.5-2.7-3.5-3.2-5.6c-0.5-2-0.3-4,0.5-5.9c-0.1-0.2-0.2-0.4-0.3-0.5c-2.4-5-5.5-9.5-9.3-13.5
			c-5.4-5.7-8.6-6.5-9.4-10.4c-1.4-6.4,4.5-15.6,11.8-16.5c5.7-0.7,9.8,0.2,11.6,7.2c1.7,6.3,9.6,4.2,13.3,10.9
			c0.4,0.7,0.7,1.5,1,2.3C239.4,325,239.5,327.1,239.1,329.1z"/>
		<path class="st2" d="M209.5,231.3c0,0-8.6-7.6-5.5-9.6s10.7,6.1,10.7,6.1L209.5,231.3z"/>
		<path class="st1" d="M239.4,244.3c-1.2,0.8-2.4,1.6-3.6,2.2c-2.7,1.4-6.2,2.7-8.5,1.1c-1.6-1.1-1.5-2.9-2.7-3
			c-0.9-0.1-1.6,0.9-2.6,2.3l0,0c-0.9,1.3-2,2.6-3.3,3.6c-2.3,1.8-5.6,3.3-6.5,2.5c-0.4-0.4-0.4-1.4,0.8-3.8c0.9-1.8,1.9-3.5,3-5.1
			l0,0c0.5-0.8,1.1-1.6,1.7-2.5c-3,2.4-6.5,4.2-10.2,5.3l0,0l-0.7,0.2l-0.8,0.2c-1,0.2-4.1,0.8-4.5-0.1c-0.2-0.5,0.5-1.2,1.9-2.5
			l0,0c1.8-1.7,3.6-3.6,5.2-5.6l0,0c0.6-0.7,1-1.3,1.3-1.6c0,0-4.6,1.8-8.8,2.9l-0.5,0.1c-1.7,0.5-3.4,0.8-5.1,0.9
			c-0.6,0-1-0.1-1.1-0.4c-0.4-0.8,1-2.8,6.3-7.1c2.7-2.5,5.5-4.8,8.6-6.7c4.7-3.1,5.8-3.3,6.5-3.4c2.2-0.1,3.2,0.9,7.9,3.9
			c8.8,5.8,8.7,9.3,13.3,10.6c3.8,1,6.5,0.2,6.9,1.4C244.1,240.9,240.5,243.5,239.4,244.3z"/>
		<path class="st2" d="M208.5,239c0.6-0.7,1-1.3,1.3-1.6c0,0-4.6,1.8-8.8,2.9l-0.5,0.1l-5.1,0.9c3.9-1,7.7-2.6,11.1-4.7
			c4.5-2.7,7.3-5.6,7.7-5.3S213.5,233.1,208.5,239z"/>
		<path class="st2" d="M216,244.1c0.5-0.8,1.1-1.6,1.7-2.5c-3,2.4-6.5,4.2-10.2,5.3l0,0l-0.7,0.2c1.6-0.9,3.9-2.3,6.6-4.1
			c3.9-2.7,6.1-4.7,6.4-4.4S219.4,239.8,216,244.1z"/>
		<path class="st0" d="M117.9,205.6c0,0-14.4-8.2-12.7-14.4s26.6-2.5,26.4,4.4S124.2,212.8,117.9,205.6z"/>
		<path class="st2" d="M111.2,267.5l88.4,1.8c3.2,0.1,5.9-2.5,6-5.8c0-0.6-0.1-1.1-0.2-1.7l-15-55.2c-0.7-2.6-3-4.4-5.7-4.4H93.8
			c-3.3,0-5.9,2.6-5.9,5.9c0,0.6,0.1,1.2,0.3,1.8l17.5,53.5C106.6,265.8,108.7,267.4,111.2,267.5z"/>
		
			<ellipse transform="matrix(0.648 -0.7617 0.7617 0.648 -129.4059 191.574)" class="st0" cx="142.6" cy="235.8" rx="5.7" ry="7.9"/>
		<path class="st2" d="M239.1,329.1c-0.1,0.8-0.3,1.7-0.4,2.5c0,0,0,0.1,0,0.1c-0.2,1.1-0.5,2.3-0.9,3.5c-0.3,1.2-0.7,2.4-1.2,3.6
			c-0.2,0.5-0.3,0.9-0.5,1.4c-0.1,0.3-0.2,0.6-0.4,0.9s-0.3,0.8-0.5,1.1c-0.3,0.8-0.7,1.5-1,2.2c-0.2,0.4-0.4,0.7-0.5,1.1
			s-0.4,0.7-0.5,1s-0.4,0.7-0.6,1c-1.1,2-2.3,3.8-3.8,5.5c-0.1,0.1-0.2,0.2-0.3,0.3s-0.4,0.4-0.6,0.6c0.1-0.6,0.4-2.4,1.3-6.4
			c0.5-2.4,2.4-5.2,4.2-7.5c-2.4-0.1-4.3-2.5-4.4-2.7c-0.6-0.8-1.1-1.9-1-2s0.6,0.6,1.4,1.1c1.1,0.9,2.6,1.2,4,0.9
			c1.6-0.5,2.5-2.3,3.1-3.5c0.1-0.2,0.2-0.5,0.3-0.7c0.3-1-0.1-1.8,0.3-3.9c0.4-1.8,0.8-1.9,1.1-3.4c0.3-1.8,0.2-3.7-0.4-5.4
			c0.4,0.7,0.7,1.5,1,2.3C239.4,325,239.5,327.1,239.1,329.1z"/>
		<path class="st2" d="M106.7,313.3c-1.8-0.6-3.5-1.4-5-2.5c-7.9-5.6-12.5-18.4-8.9-23.2c0.7-0.9,1.8-1.5,3-1.6
			c-0.3,0.2-5.5,4.2-2.2,7.4c3.1,2.9,5.3,2.5,5.7,2.4c-0.4,0.2-3.3,1.3-3.7,3s4.9,10.5,8.1,11.6
			C105.8,311.1,105.8,312.3,106.7,313.3z"/>
		<path class="st4" d="M90.7,156.1c0,0,8.4-9.4,10.4-8.6s-0.9,12-1.6,11S88.4,164.1,90.7,156.1z"/>
		<path class="st0" d="M68.1,236c0,0-8.6-14.2-4.1-18.8s24.4,10.7,20.9,16.7S70.1,245.3,68.1,236z"/>
		<path class="st1" d="M49.2,160.1l-8.2,10.5c-0.4-2.8-1.4-4.9-3.5-6c-3.7-2.2-8.3,0.1-11.4,0.8l0,0c0,0,12-22.6,17.1-19.4
			S49.2,160.1,49.2,160.1z"/>
		<ellipse class="st1" cx="75.7" cy="164.3" rx="7.3" ry="9"/>
		<circle class="st4" cx="93.4" cy="147.7" r="1.8"/>
		<circle class="st13" cx="78.6" cy="160.1" r="1.8"/>
	</g>
</g>
</svg>
