<?xml version="1.0" encoding="utf-8"?>
<!-- Generator: Adobe Illustrator 23.0.5, SVG Export Plug-In . SVG Version: 6.00 Build 0)  -->
<svg version="1.1" id="Camada_1" xmlns="http://www.w3.org/2000/svg" xmlns:xlink="http://www.w3.org/1999/xlink" x="0px" y="0px"
	 viewBox="0 0 757.1 654.3" style="enable-background:new 0 0 757.1 654.3;" xml:space="preserve">
<style type="text/css">
	.st0{fill:#787487;}
	.st1{fill:#5A5569;}
	.st2{fill:#CCCCCC;}
	.st3{fill:#252233;}
	.st4{fill:#F2F2F2;}
	.st5{opacity:0.46;fill:#5A5569;enable-background:new    ;}
	.st6{fill:#87B786;}
	.st7{fill:#638C62;}
	.st8{fill:#6A9599;}
</style>
<title>Prancheta 32 cópia 3</title>
<g>
	<path class="st0" d="M397.3,154c3.9-2.2,8.4-3.2,12.9-2.8c3.5,0.2,3.9,1.8,3.9,2.2c-0.1,0.6-1.6,1.3-4.8,2.1
		c-1.3,0.3-1.8,0.9-1.9,1.3c-0.9,2.9,18.4,9.6,17.7,12.5c-0.2,0.8-5.3,0.8-15.4,0.8c-3.4,0-7.4-0.1-11.6-2.2c-2.8-1.4-3.5-2.6-3.7-3
		C392.1,160.4,396.9,154.3,397.3,154z"/>
	<path class="st1" d="M444.1,411.3c0.5,7.7,3.6,15.4,8,15.4s7.5-7.7,8-15.4c4.5-75.7-3.6-304.4-8-304.4S439.6,335.6,444.1,411.3z"/>
	<circle class="st1" cx="452.1" cy="106.4" r="13.2"/>
	<path class="st1" d="M621.6,105.1c-0.8,1.6-1.9,2.9-3.2,4c-1.3,1-2.9,1.7-4.5,2c-3.4,0.5-6.8-0.1-9.9-1.6c-3.2-1.5-6.5-3.3-9.9-4.9
		s-6.9-3.3-10.5-4.7c-7.3-2.8-14.9-4.7-22.6-5.7c-3.9-0.4-7.8-0.6-11.7-0.7c-3.9,0-7.8,0.3-11.7,0.7c-7.8,0.9-15.5,2.4-23,4.4
		l-2.7,0.8l-2.6,0.7c-1.7,0.5-3.5,1-5.2,1.6s-3.5,1-5.2,1.5l-2.6,0.8l-2.6,0.7c-6.8,2.1-13.7,3.6-20.6,4.7
		c-3.4,0.5-6.9,0.7-10.4,0.6c-1.7-0.1-3.5-0.3-5.2-0.6c-0.4-0.1-0.8-0.2-1.3-0.3l-0.6-0.2c-0.2-0.1-0.4-0.1-0.6-0.2
		c-0.4-0.1-0.8-0.3-1.2-0.5c-0.4-0.2-0.8-0.4-1.1-0.6l-1,0.8c1.1,1.8,2.6,3.3,4.3,4.5c1.7,1.2,3.5,2.1,5.4,2.9
		c3.8,1.5,7.7,2.5,11.8,2.9c7.9,0.8,15.8,0.5,23.6-1l2.9-0.5c1-0.2,1.9-0.4,2.8-0.7c1.9-0.5,3.8-1,5.6-1.5c1.8-0.6,3.6-1.2,5.5-1.9
		l2.7-1l2.6-1c6.6-2.8,13.4-4.9,20.3-6.4c3.5-0.7,7-1.2,10.5-1.5s7.1-0.4,10.6-0.3c7.2,0.2,14.3,1.3,21.2,3.2
		c3.5,0.9,6.9,2.1,10.4,3.4l5.2,1.9c1.8,0.7,3.5,1.3,5.4,1.9c1,0.3,1.9,0.6,2.9,0.8c0.5,0.1,1,0.2,1.5,0.2c0.5,0.1,1,0.1,1.5,0.2
		c2.1,0.1,4.1-0.1,6.1-0.7s3.8-1.7,5.2-3.2c1.4-1.4,2.5-3.2,3.1-5.1L621.6,105.1z"/>
	<path class="st1" d="M281.4,105.6c0.6,1.9,1.7,3.7,3.1,5.1c1.4,1.5,3.2,2.6,5.2,3.2s4.1,0.8,6.1,0.7c0.5,0,1-0.1,1.5-0.2
		s1-0.1,1.5-0.2c1-0.2,2-0.4,2.9-0.8c1.9-0.6,3.7-1.2,5.4-1.9l5.2-1.9c3.5-1.3,6.9-2.4,10.4-3.4c6.9-1.9,14-3,21.1-3.2
		c3.5-0.1,7.1,0,10.6,0.3s7,0.8,10.5,1.5c7,1.5,13.8,3.6,20.3,6.4l2.6,1l2.7,1c1.8,0.6,3.6,1.3,5.5,1.9s3.7,1,5.6,1.5
		c0.9,0.2,1.9,0.5,2.8,0.7l2.9,0.5c7.8,1.5,15.7,1.8,23.6,1c4-0.5,8-1.5,11.8-2.9c1.9-0.8,3.7-1.8,5.4-2.9c1.7-1.2,3.2-2.7,4.3-4.5
		l-1-0.8c-0.3,0.2-0.7,0.4-1.1,0.6s-0.8,0.3-1.2,0.5c-0.2,0.1-0.4,0.2-0.6,0.2l-0.6,0.2c-0.4,0.1-0.8,0.2-1.3,0.3
		c-1.7,0.3-3.4,0.5-5.2,0.6c-3.5,0.1-7-0.1-10.4-0.6c-7-1-13.9-2.6-20.6-4.7l-2.6-0.7l-2.6-0.8c-1.7-0.5-3.4-1-5.2-1.5
		s-3.5-1.1-5.2-1.6l-2.6-0.7l-2.7-0.8c-7.5-2.1-15.2-3.5-23-4.4c-3.9-0.4-7.8-0.7-11.7-0.7c-3.9,0-7.8,0.2-11.7,0.7
		c-7.7,1-15.3,2.9-22.6,5.7c-3.6,1.4-7.1,3-10.5,4.7s-6.7,3.5-9.9,4.9c-3,1.5-6.5,2.1-9.9,1.6c-1.7-0.3-3.2-1-4.5-2
		c-1.4-1.1-2.5-2.4-3.3-4L281.4,105.6z"/>
	<polygon class="st1" points="670,343.1 573.8,107.1 483.7,343 480.9,342 573.7,98.9 575.1,102.4 672.7,341.9 	"/>
	<polygon class="st2" points="590.4,180.1 558.2,81 537.2,77.5 525.8,87.9 527.2,193 	"/>
	<polygon class="st1" points="427.3,343.1 331.2,107.1 241.1,343 238.2,342 331.1,98.9 430.1,341.9 	"/>
	<path class="st0" d="M473.6,122.5c-0.5-0.4-3.5-3-7.2-2.3c-2.6,0.5-5.1,2.7-4.8,3.8c0.2,0.8,1.6,0.5,1.9,1.3c0.8,2.4-8.9,6-8.3,9.6
		c0.3,2.3,4.7,3.3,6,3.6c5.4,1.3,9.8-1.3,11.6-2.2c2.8-1.4,3.5-2.6,3.7-3C478.2,129.9,476.6,125.1,473.6,122.5z"/>
	<path class="st0" d="M542.5,66.6c3-3.9,5-8.6,5.3-13.5c0.4-7.2-2.5-14.1-7.9-18.9c-1.6-1.4-7.7-6.8-16-5.6
		c-8.1,1.2-12.4,7.7-12.9,8.5c-4.5,7-2.4,14.9-0.4,22.7c0.7,2.6,1.3,5,2,7.2c1.6,5.2,3.6,9.1,7.3,10.5c3.1,1.2,7.1,0.6,11.2-1.4
		c0.1-0.1,0.2-0.1,0.3-0.2l0.8,7.6l6.1,5.5l9.8-9.3L542.5,66.6z"/>
	<path class="st3" d="M520.3,51.8c2.1-1.6,5.1-1.2,6.7,0.8c0.1,0.1,0.2,0.2,0.3,0.4C525.1,51.8,522.6,51.4,520.3,51.8z"/>
	<path class="st3" d="M515.1,51.9c-1.2,0-2.4,0.2-3.5,0.6c-1.1,0.4-2.2,1-3.1,1.7c1.1-2.4,3.9-3.5,6.3-2.5
		C514.9,51.8,515,51.9,515.1,51.9z"/>
	<path class="st3" d="M527.5,65.2c-0.4,0.6-0.9,1.2-1.5,1.6s-1.2,0.8-1.9,1c-1.3,0.5-2.8,0.7-4.2,0.5c0.7-0.3,1.3-0.5,2-0.7
		s1.3-0.4,1.9-0.7C525.1,66.4,526.4,65.8,527.5,65.2z"/>
	<ellipse class="st4" cx="523.1" cy="55.8" rx="2.7" ry="2.4"/>
	<ellipse class="st4" cx="513" cy="56.3" rx="2.2" ry="2"/>
	<circle class="st3" cx="522.4" cy="56.9" r="1.3"/>
	<circle class="st3" cx="513" cy="57.1" r="1.3"/>
	<path class="st5" d="M512.5,67.1c1.6,5.2,3.6,9.1,7.3,10.5c3.1,1.2,7.1,0.6,11.2-1.4c1.9-2,2.7-4.7,2.4-7.4c-0.1-0.4-0.7-4.5-3.8-6
		c-1.2-0.6-2.7-0.7-12,2.5C515.5,66,513.7,66.6,512.5,67.1z"/>
	<polygon class="st6" points="374.6,228.1 333.2,234.5 323.2,333.1 369.2,335.7 371,327.2 363.8,320 371,255.8 371.3,253.8 	"/>
	<path class="st2" d="M328.6,238.8c8.7,5.4,18.9,7.8,29.1,6.8c7.2-0.8,14.1-3.3,20.2-7.3c5.8-28.6,3.7-47.5,0.3-59.8
		c-0.7-2.4-1.4-4.9-2.7-9.1c-1.3-4.4-1.6-5.9-2.2-8c-3.2-11.6-8.3-24.7-8.1-28.9c0-0.4,0.4-1.6-0.2-2.6c-0.8-1.3-2.3-0.9-3.2-1.9
		c-1.3-1.5,0.8-4,0.4-6.5c-0.3-1.8-1.9-4.2-8.4-6.4c-2.7,2.7-5.2,5.7-7.4,8.8c-2.4,3.4-4.5,7-6.3,10.8c-5.6,12.2-7.1,25.1-8.4,40.2
		C329.9,197.3,328.9,218.6,328.6,238.8z"/>
	<path class="st3" d="M611.5,123.3L569,81.5l-16.2,2.9l34.6,128.3l25.2-15.8l-12.5-29.3C605,152,618,129.6,611.5,123.3z M578.4,117
		l16.6,15.4l-3.8,14.4L578.4,117z"/>
	<path class="st3" d="M528.5,84.9l12.8,134.5l-22.5-5.5l-5.8-73l-3,7.9c-2,5.3-7.9,8.1-13.3,6.1c-0.1,0-0.1,0-0.2-0.1L468,143.6
		l7.6-17.3l21.4,10.6l18.7-45.7L528.5,84.9z"/>
	<polygon class="st1" points="551.6,77.7 563.6,80.5 563.1,99.6 572.1,127.3 574.3,164.2 554.2,101 	"/>
	<polygon class="st1" points="521.8,86.6 526.7,104 523.1,124.1 536.6,171.9 529.3,81.8 	"/>
	<path class="st1" d="M542.2,50.9c-1.3-0.5-2.8-0.2-3.8,0.7c-2.2,1.8-1.3,5.4-2.4,5.7s-2.9-3-3-3.2c-0.6-1.1-2.7-4.3-1.5-8.2
		c2-6.6,5.9-9.4,2-11.4s-11.8,5.5-19.1,4.6s-1.9-6.3-0.2-8.7s14.4-6.3,23.7-3.4c1.9,0.6,12.6,4.9,14.7,15.5
		c2.1,10.8-6.4,19.9-7.4,19.5c-0.5-0.2,0.5-3.1-0.8-7.7C543.7,51.9,542.9,51.2,542.2,50.9z"/>
	<path class="st3" d="M341.7,116c-6.9,14.5-22.2,16-27.2,9.2s2.1-8.5,2.1-8.5s-10.6-0.7-12.8-9.6s12.5-12,12.5-12s-10-2.2-4.7-14.6
		s20.4-8.8,20.4-8.8c-1.8-4.3,4.4-15.4,16.4-17.2s12.6,8.3,12.6,8.3s1.2-9.6,13.3-7.8s-2,17.4-2,17.4s5.3-2.6,11.4,4.8
		s-13.1,13.4-13.1,13.4s-12.6-7.3-21.3-1.8S346.4,106.1,341.7,116z"/>
	<path class="st0" d="M382.2,92.8l-0.3-0.3c-6.6-7.9-6.3-12.3-9.2-14.8c-4.4-3.8-14.7-2.3-21.4,1.3c-11.5,6.4-15.6,21.4-11.1,31.9
		c1.7,4,4.7,7.4,8.5,9.9c-0.8,1-1.6,2-2.3,3.1c-2.4,3.4-4.5,7-6.3,10.8c3.4,0.2,7.6,0.3,12.2-0.2c4.3-0.5,8.1-1.3,11.3-2.1
		c0-2.3,0.1-4.6,0.1-6.8c1.8,0,4.4-0.1,7.3-0.8c2.8-0.7,13.9-4,17.3-13.4C391.2,103.5,385.9,97.2,382.2,92.8z"/>
	<path class="st3" d="M344,79c0,0,15.6,15.7,8.3,22.9s-13.5,0.7-8.7,8.8s6.5,7,2.1,9.6s-14.2-11.9-12.2-19.7S344,79,344,79z"/>
	
		<ellipse transform="matrix(0.9177 -0.3973 0.3973 0.9177 -13.1631 144.3085)" class="st7" cx="341.7" cy="103.9" rx="6.9" ry="13.1"/>
	<path class="st7" d="M345.6,64.2c-1.4-2-3.8-3.1-6.2-2.5c-3.5,0.7-8.1,2.5-9.9,6.8c-3.1,7.2,8.3,32,8.3,32l4.9-1.1
		c0,0-12-30.3-7.8-32.4S345.6,64.2,345.6,64.2L345.6,64.2z"/>
	<path class="st2" d="M326,333.1v9.4h54.2c0,0,1.1-6.2-13.3-7S326,333.1,326,333.1z"/>
	<path class="st1" d="M372.6,98.5c-0.2,0.3,2.4,3.9,4.9,3c1.4-0.7,2.2-2.2,2.1-3.7c-0.1-0.1-0.6,1.4-1.9,2
		C375.5,100.7,372.8,98.3,372.6,98.5z"/>
	<path class="st6" d="M343.7,123.9c0,0,18.2,2.8,20.1,10.5s3.5,95.5,3.5,95.5s-30.4,1.6-38.8-3C328.6,226.9,324.1,139.9,343.7,123.9
		z"/>
	<path class="st7" d="M367.7,165.6c0,0-10.8-37.7-21.8-31.2s9,52.2,12.2,53.7s39.9-20.8,39.9-20.8l-4.3-10.2L367.7,165.6z"/>
	<rect x="340.2" y="197.5" class="st7" width="18.7" height="7.8"/>
	<ellipse class="st3" cx="350.6" cy="197.6" rx="1.7" ry="5.7"/>
	<path class="st1" d="M519.5,63.7c0.2,0.3-2.3,3.7-4.7,2.8c-1.3-0.7-2.1-2.1-2-3.5c0.2-0.1,0.5,1.3,1.8,1.9
		C516.7,65.8,519.4,63.4,519.5,63.7z"/>
	<path class="st3" d="M610.4,336.7l-4.6-7.6h4.6l-18.8-155.5c-11.2,3.5-22.6,6.1-34.2,7.8c-9.9,1.4-20,2.2-30,2.2l3.2,141.6l5.7,2
		l-36.1,21h14.9l14.9-3.9l0.8,1.9h13.7V330l7.4,2.7l6.8-126.3l33,122.5h1.6l-1.3,17.2h6.4v-2.5l8.6,4.5h22.1L610.4,336.7z"/>
	<polygon class="st8" points="539.2,103.8 542.4,171.8 553,181.5 560,169 542.4,103.2 544.2,97.6 539.2,95 536.2,97.6 	"/>
	
		<ellipse transform="matrix(0.9177 -0.3973 0.3973 0.9177 -13.4977 143.8376)" class="st6" cx="340.4" cy="104.5" rx="5.4" ry="10.3"/>
	<path class="st3" d="M365.6,88.2c-1,0.2-2,0.5-3,0.9c-1,0.5-1.9,1.1-2.7,1.7c0.3-1.2,1.1-2.2,2.2-2.6
		C363.3,87.7,364.6,87.7,365.6,88.2z"/>
	<path class="st3" d="M372.4,86.8c1.6-1.6,4.2-1.7,5.9-0.1c0.1,0.1,0.3,0.3,0.4,0.5c-1-0.3-2.1-0.5-3.1-0.6
		C374.5,86.5,373.5,86.6,372.4,86.8z"/>
	<path class="st3" d="M372.1,110.6c-1,0.1-2.1,0.1-3.1-0.2c-1-0.2-2-0.6-2.9-1.1s-1.8-1-2.6-1.7c-0.8-0.6-1.5-1.4-2.1-2.2
		c0.9,0.5,1.7,1,2.6,1.5s1.7,1,2.6,1.4C368.4,109.3,370.2,110.1,372.1,110.6z"/>
	<ellipse class="st4" cx="363.8" cy="95.2" rx="3.5" ry="3.2"/>
	<ellipse class="st4" cx="378" cy="92" rx="2.8" ry="2.6"/>
	<circle class="st3" cx="365.6" cy="95.4" r="1.7"/>
	<circle class="st3" cx="379" cy="92" r="1.7"/>
	<path class="st0" d="M469.7,341.2c0,12.5,46.1,22.6,103,22.6s103-10.1,103-22.6"/>
	<path class="st0" d="M228.6,341.2c0,12.5,46.1,22.6,103,22.6s103-10.1,103-22.6"/>
	<path class="st7" d="M468.2,132.6c-4.5-3.5-22.8-10.8-22.7-12.2c0-0.1,0-0.1,0-0.2c2.3-0.7,7.4-3.1,6.9-11.9l-5.5,1
		c0,1.5-0.5,2.9-1.5,4c-1.6,1.8-5.2,6.5-5.2,6.5l0,0l0,0c0,0,2.7,10.6,11.8,13.8c9.1,3.2,13,6.5,13.6,11.1l4.6,2.2
		C470.2,146.9,472.7,136.1,468.2,132.6z"/>
	<path class="st6" d="M452.4,108.3c0,0-0.3,4.8,9.8,10.6s13.7,8.2,15.3,17.5l-7.3,10.5c0,0-0.2-7.6-10-12.8s-13.2-3.9-15.9-13.7
		C444.3,120.4,451.9,115.7,452.4,108.3z"/>
	<path class="st7" d="M464.3,133.2c-1.5,0-3.1-0.3-4.8-0.9c-4.7-1.8-7.6-5.7-6.5-8.6l0,0c1.1-3,5.9-3.9,10.6-2.1s7.6,5.7,6.5,8.6
		C469.4,132.2,467.1,133.2,464.3,133.2z M454,124c-0.9,2.4,1.7,5.7,5.9,7.3c4.2,1.6,8.4,0.9,9.3-1.5c0.9-2.4-1.7-5.7-5.9-7.3
		C459.1,120.9,454.9,121.6,454,124L454,124z"/>
	<path class="st7" d="M458,129.4l0.8-0.7c-0.7-0.4-1.2-0.9-1.6-1.5l0.8-0.3c0.4,0.6,0.9,1.1,1.5,1.5c0.9,0.6,1.9,0.7,2.3,0.3
		s0.2-0.9-0.5-1.7c-1-1.1-1.5-1.9-0.8-2.5s1.9-0.5,3.2,0.1l0.8-0.7l0.8,0.5l-0.8,0.7c0.5,0.3,1,0.8,1.4,1.3l-0.8,0.2
		c-0.4-0.5-0.8-0.9-1.4-1.3c-1-0.6-1.7-0.5-2-0.3s-0.1,0.8,0.7,1.8c1,1.1,1.3,1.9,0.6,2.5s-1.9,0.6-3.4-0.1l-0.8,0.7L458,129.4z"/>
	<path class="st0" d="M461.8,140.3c0,0-10.4-1.8-11.8-3.9s-2.6-8.4,0-7.9s3,5.2,3,5.2s0.4-5.5,2.8-4.1s1.4,6.4,1.4,6.4
		c0.4-2.6,1.8-4.3,3.2-4.3c0.9,0.1,1.8,0.6,2.3,1.4c0,0,0.9,1.2,0.8,6.4l0,0C463.5,139.6,464.3,140.7,461.8,140.3z"/>
	<path class="st0" d="M470.4,121.2c0,0-10.7,0.5-9.7,3s14.9,2.5,14.9,2.5L470.4,121.2z"/>
	<path class="st6" d="M261.6,407.8c-29.3-1-52.7-5.4-70.2-13.5l5.7-26.3c3-9.7,5.4-23.1-0.6-35.2c-4.1-8.3-9.8-11.3-14.7-15.7
		c-25.8-23.3-7-68-21.1-73.6c-8.2-3.2-21.7,8.6-27.4,19.9c-7.4,14.6-2.3,29.3-0.4,34.8c6.2,18,17.5,20.1,18.9,31.3
		c0.4,3,0.1,6.7-2,11.1c-37.6-32.8-78.2-42.6-97.5-27.5c-14,10.8-14.4,32.7-15,59.1c-0.5,21.1-1.2,55.8,21.1,74.9
		c12.9,11,28.2,12.4,37.9,13.2c70.4,5.7,137.2,8.6,165.4,9.7v0.2h495.5v-62.4H261.6z"/>
	<path class="st1" d="M433.2,388.2h37.4c3.3,0,6,2.7,6,6l0,0c0,3.3-2.7,6-6,6h-37.4c-3.3,0-6-2.7-6-6l0,0
		C427.2,390.9,429.9,388.2,433.2,388.2z"/>
	<path class="st1" d="M501.8,421.4c-32.8,8.2-67,8.2-99.8,0v-6.6c0-9,7.3-16.2,16.2-16.2h67.3c9,0,16.2,7.3,16.3,16.2V421.4z"/>
	
		<rect x="590.5" y="172.7" transform="matrix(9.984110e-02 -0.995 0.995 9.984110e-02 352.1725 753.3402)" class="st1" width="3.9" height="18.7"/>
</g>
</svg>
