<svg xmlns="http://www.w3.org/2000/svg" viewBox="0 0 318.21 748.6"><defs><style>.cls-1{fill:#ccc;}</style></defs><title>Prancheta 30</title><g id="Camada_1" data-name="Camada 1"><path class="cls-1" d="M300.06,587.74c-6.69-11.06-67.87,10.18-123.69,32.22,1.79-8.15,10.12-12.68,13.12-28.17,1-5.37,3.82-19.71-5-32.31-6.81-9.77-20.94-19-28.16-14.91-12.42,7,11,46.16-9.94,71.24-4,4.78-8.89,8.36-11.59,16.56a31.7,31.7,0,0,0-1,4c-35.82-7.36-54.3-41-56.32-102.63V0H18.85V533.79H19c2.55,103.85,39.41,168.55,109.72,192.39a95.46,95.46,0,0,0,77.34,1.45c6.22,1.32,13.39,1.58,19.88-1.66,23.19-11.56,27.17-62.49,16.27-92.46,20.9-6.15,41.58-16.32,53.42-33.18C298.53,596.21,302.06,591.05,300.06,587.74Z"/></g></svg>