<svg xmlns="http://www.w3.org/2000/svg" viewBox="0 0 269.37 347.29"><defs><style>.cls-1{fill:#87b786;}</style></defs><title>Prancheta 36 cópia</title><g id="Camada_1" data-name="Camada 1"><path class="cls-1" d="M251.32,208.62c-5.45-9-55.35,8.3-100.88,26.28,1.46-6.65,8.26-10.34,10.7-23,.85-4.38,3.12-16.08-4-26.35-5.56-8-17.08-15.5-23-12.16-10.13,5.75,9,37.65-8.11,58.1-3.25,3.9-7.25,6.82-9.45,13.51a25.42,25.42,0,0,0-.85,3.3c-29.21-6-44.29-33.47-45.94-83.71V0H22V164.62h.13c2.07,84.7,32.14,137.47,89.49,156.91a77.79,77.79,0,0,0,63.08,1.19c5.07,1.07,10.92,1.28,16.21-1.36,18.91-9.43,22.16-51,13.27-75.41,17.05-5,33.91-13.31,43.58-27.07C250.07,215.53,253,211.32,251.32,208.62Z"/></g></svg>