<svg id="Camada_1" data-name="Camada 1" xmlns="http://www.w3.org/2000/svg" xmlns:xlink="http://www.w3.org/1999/xlink" viewBox="0 0 470 480"><defs><style>.cls-1{fill:none;}.cls-2{clip-path:url(#clip-path);}.cls-3{fill:#595468;}.cls-4{fill:#87b786;}.cls-5{fill:#a1b581;}</style><clipPath id="clip-path"><rect class="cls-1" width="470" height="480"/></clipPath></defs><title>UsFree_final</title><g class="cls-2"><path class="cls-3" d="M116.78,390q-13.07,0-19.83-6.81T90.19,363V322.35h7.6v41.34q0,9.87,4.8,14.8t14.19,4.93q9.19,0,14-5t4.8-14.75V322.35h7.7V363q0,13.24-6.76,20.1T116.78,390Z"/><path class="cls-3" d="M174.37,389.91q-11.94,0-18.88-6.11l2.53-5.64a27,27,0,0,0,7.75,4.28,27.35,27.35,0,0,0,8.88,1.36q5.35,0,8.13-1.83a6,6,0,0,0,2.77-5.31,5.62,5.62,0,0,0-1.88-4.46,14.74,14.74,0,0,0-6.2-2.68l-8-1.88a17.61,17.61,0,0,1-9.17-4.7,11.27,11.27,0,0,1-3.24-8.08,12.13,12.13,0,0,1,2.26-7.28,14.93,14.93,0,0,1,6.29-4.93,23.57,23.57,0,0,1,9.58-1.79,27.26,27.26,0,0,1,9.4,1.6,20,20,0,0,1,7.43,4.6l-2.54,5.55a25,25,0,0,0-6.91-4.19,20.43,20.43,0,0,0-7.38-1.36q-5.07,0-7.84,2a6.25,6.25,0,0,0-2.77,5.36,6.07,6.07,0,0,0,1.74,4.6,11.94,11.94,0,0,0,5.59,2.63l8,2q6.66,1.41,9.81,4.65a11.31,11.31,0,0,1,3.15,8.22,11.53,11.53,0,0,1-5,9.77Q182.92,389.9,174.37,389.91Z"/><path class="cls-4" d="M205.94,389.25v-66.9h41.34v6.48H213.55V352H245.4v6.48H213.55v30.73Z"/><path class="cls-4" d="M257,389.25v-34c0-2.2,0-4.4-.14-6.63s-.3-4.43-.61-6.62h7.23l1,11.65-1-.28a14.74,14.74,0,0,1,5.69-9.35,16.36,16.36,0,0,1,9.81-3.15,18.62,18.62,0,0,1,2.31.14,14.54,14.54,0,0,1,2,.42l-.18,7a15.16,15.16,0,0,0-5-.75,13,13,0,0,0-7.85,2.16,12.61,12.61,0,0,0-4.32,5.49,18.34,18.34,0,0,0-1.36,7v27Z"/><path class="cls-4" d="M328.74,383.61a21.85,21.85,0,0,1-7.94,4.6,29.75,29.75,0,0,1-9.91,1.7A25.81,25.81,0,0,1,298.25,387a19.74,19.74,0,0,1-8.17-8.41,31.06,31.06,0,0,1-.05-26,21.23,21.23,0,0,1,7.85-8.65,21.59,21.59,0,0,1,11.6-3.1,20.33,20.33,0,0,1,10.81,2.77,18,18,0,0,1,6.9,7.94,29.27,29.27,0,0,1,2.4,12.4v1.41H293.88v-5h31.39l-2.44,3.48q.18-8.26-3.25-12.69t-10-4.41a13,13,0,0,0-10.75,4.84q-3.9,4.85-3.9,13.39,0,9.21,4.09,13.9t12,4.7a23.37,23.37,0,0,0,7.94-1.36,25,25,0,0,0,7.28-4.18Z"/><path class="cls-4" d="M379.85,383.61a21.89,21.89,0,0,1-7.93,4.6,29.8,29.8,0,0,1-9.91,1.7A25.81,25.81,0,0,1,349.37,387a19.77,19.77,0,0,1-8.18-8.41,31.1,31.1,0,0,1,0-26A21.14,21.14,0,0,1,349,344a21.62,21.62,0,0,1,11.6-3.1,20.33,20.33,0,0,1,10.81,2.77,17.83,17.83,0,0,1,6.9,7.94,29.27,29.27,0,0,1,2.4,12.4v1.41H345v-5h31.38l-2.45,3.48q.19-8.26-3.24-12.69t-10-4.41a13,13,0,0,0-10.76,4.84Q346,356.47,346,365q0,9.21,4.09,13.9t12,4.7a23.28,23.28,0,0,0,7.93-1.36,24.92,24.92,0,0,0,7.29-4.18Z"/><path class="cls-5" d="M187.47,119.44c.05.06.1.06.1.11v-.11Z"/><path class="cls-3" d="M210,262.76c-26.75-9.07-40.32-34.26-40.32-74.88V137.56c9,5.76,14.33,14.54,20.85,34.07l.59,16.26c0,26.05,7.18,39.85,22,42.16l.3,0,.18-.26c2.66-3.75,7.93-10,13.29-10a6.81,6.81,0,0,1,1.49.17,17.36,17.36,0,0,1,4.33,1.78l.12.11,1.21,1.08c1.07.95,2,1.78,2.77,2.59a25,25,0,0,1,3.47,4.1l.38.61a7.4,7.4,0,0,1,.49.82,4.88,4.88,0,0,1,.41.76,23.2,23.2,0,0,1,2.49,5.74,6.81,6.81,0,0,1,.38,4.09,2.19,2.19,0,0,1-.39.81,4.63,4.63,0,0,1-2.84,1.08l-.15,0-.58,0c-2.55,0-4.88-1.54-6.38-2.84a22.22,22.22,0,0,1-3.88-4.52l-.08-.13-1.63-2.6-2.31,2a79.17,79.17,0,0,0-7.08,6.93l-.43.48a41.06,41.06,0,0,0-4.26,5.39C212.14,251.69,208.88,256.78,210,262.76Z"/><path class="cls-3" d="M246.43,276a1.24,1.24,0,0,1-.64-.16,1.59,1.59,0,0,1-.51-.88,4.26,4.26,0,0,1-.24-1.07,5.35,5.35,0,0,1,1.45-4.13,4.93,4.93,0,0,1,2.88-1.16,2.46,2.46,0,0,1,.51,0,7.31,7.31,0,0,1,.85.07,2.73,2.73,0,0,1,.84.22l.1,0h.08a5.35,5.35,0,0,0,.85.63c.13.22.19.69-.2,1.66a8.43,8.43,0,0,1-1.91,2.86A7.23,7.23,0,0,1,246.43,276Z"/><path class="cls-3" d="M257,266.67a5.45,5.45,0,0,0-1.55-1.59,3.69,3.69,0,0,0-.45-.37,11.12,11.12,0,0,0-1.29-.63,5,5,0,0,1,2.13-3.2,4.72,4.72,0,0,1,1.78-.61,3.23,3.23,0,0,1,.61,0,5.64,5.64,0,0,1,1.44.2,2.56,2.56,0,0,1,.56.15.85.85,0,0,1,.33.16,2.16,2.16,0,0,1,1.31,1.12.67.67,0,0,1,0,.24s-.06.29-.08.37h0l-.15.34a2.9,2.9,0,0,1-.57,1,7.48,7.48,0,0,1-2.21,2.05A8.28,8.28,0,0,1,257,266.67Z"/><path class="cls-3" d="M266.31,259.12a7.89,7.89,0,0,0-3.85-3.21,5,5,0,0,1,1.85-2.31,4.42,4.42,0,0,1,2.38-.6,5.78,5.78,0,0,1,2,.35,2.89,2.89,0,0,1,1.68,1.25c.25.8-1.15,2.88-3,4A5.74,5.74,0,0,1,266.31,259.12Z"/><path class="cls-3" d="M188.46,120a26.89,26.89,0,0,0-2.38-2.57c-6.69-6.24-17.7-10.74-32.72-13.38a14.47,14.47,0,0,1-9-8.82,15.67,15.67,0,0,1-.84-4.48c16.69,2.22,29.5,6.85,36.12,13,4,3.78,7,9.28,9,16.36Z"/><path class="cls-3" d="M194,160.15c-.4-1.22-1-2.94-1.09-3.2l0,.13A81,81,0,0,0,187.29,145a45.09,45.09,0,0,0-17.61-17.57,43.61,43.61,0,0,0-10.74-3.92c-3.77-1-6.74-1.72-9.32-4.8a15.53,15.53,0,0,1-3.42-9.5c1.76.23,3.47.49,5.08.74,2.89.48,5.65,1.06,8.2,1.71a68.93,68.93,0,0,1,15.66,5.66,33.77,33.77,0,0,1,5.72,3.72,13,13,0,0,1,1.41,1.17c3.48,3.26,6.23,7.87,8.2,13.73a55.45,55.45,0,0,1,1.87,7.07l.06.38c.1.51.19,1,.25,1.5v.22a81.5,81.5,0,0,1,1.23,12C193.92,158.09,194,159.1,194,160.15Z"/><path class="cls-4" d="M282.28,120.19c2-7.08,5-12.58,9-16.36,6.63-6.2,19.44-10.83,36.13-13a15.61,15.61,0,0,1-.84,4.48,14.45,14.45,0,0,1-9.09,8.83c-15,2.63-26,7.13-32.64,13.37a26.37,26.37,0,0,0-2.42,2.59Z"/><path class="cls-4" d="M276.94,160.15q0-1.56.06-3.06a81.22,81.22,0,0,1,1.23-12v-.19c.06-.54.16-1.05.25-1.59l.06-.33a55.73,55.73,0,0,1,1.87-7.06c2-5.86,4.72-10.47,8.19-13.72A12.12,12.12,0,0,1,290,121a34,34,0,0,1,5.74-3.74,68.63,68.63,0,0,1,15.66-5.65c2.56-.66,5.32-1.24,8.21-1.72,1.61-.25,3.32-.51,5.08-.74a15.53,15.53,0,0,1-3.42,9.5c-2.58,3.08-5.56,3.84-9.32,4.8a43.8,43.8,0,0,0-10.75,3.92A45.22,45.22,0,0,0,283.59,145,81.69,81.69,0,0,0,278,157.08l0-.13C277.94,157.21,277.34,158.93,276.94,160.15Z"/><path class="cls-4" d="M237.85,278.09a4.57,4.57,0,0,1-2.59-.77h0l-.15-.13a4.36,4.36,0,0,1-1.47-2.05,4.71,4.71,0,0,1,.86-4.22l-.66-.74-.24.17a11.12,11.12,0,0,1-4.21,2,5.45,5.45,0,0,1-1.3.15c-2.13,0-4.82-1.07-5.71-3.41a4.47,4.47,0,0,1-.19-2.75,8.21,8.21,0,0,1,1.06-2.51l-.8-.6a5.5,5.5,0,0,1-3.36,1.81h-.59a5.25,5.25,0,0,1-.54,0l-.54-.11a5.63,5.63,0,0,1-.59-.14,3.51,3.51,0,0,1-1.24-.65v0l-.14-.15c-1.47-1.47-1.14-4-1-5.21a17,17,0,0,1,3.89-7.65,2.78,2.78,0,0,1,.34-.45l0,0,0,0a33.35,33.35,0,0,1,3.46-4.24l.41-.52a55.14,55.14,0,0,1,4.49-4.49l.48.56c.26.29.53.6.8.94,2.58,2.74,6.67,5.95,11.68,5.95a11.77,11.77,0,0,0,1.18,0,9.1,9.1,0,0,0,6.41-3,6.15,6.15,0,0,0,1.22-2.33,11.33,11.33,0,0,0,0-6.53,38.33,38.33,0,0,0-4.72-10.14,23.74,23.74,0,0,0-2.52-3.29,9.25,9.25,0,0,1,2.12-.24c4.47,0,12.76,3.17,15.1,6.4l.2.28.33-.08c14.31-3.64,20.42-16.19,20.42-42l.59-16.25c5.53-17.51,12.17-28.37,20.84-34.06v50.31c0,32.44-8.75,55.14-26,67.5A5.86,5.86,0,0,0,275,253a7.71,7.71,0,0,0-4.84-4.48,10.89,10.89,0,0,0-3.77-.68,9.8,9.8,0,0,0-5.08,1.37,8.46,8.46,0,0,0-2.72,2.54,10.84,10.84,0,0,0-1.67,3.43,9.63,9.63,0,0,0-4.13,1.27,10.14,10.14,0,0,0-4.56,7.06,9.84,9.84,0,0,0-5.6,2.49l-.55.55a10.6,10.6,0,0,0-2.49,7.8,7.86,7.86,0,0,0,.82,3.21A6,6,0,0,1,237.85,278.09Z"/></g></svg>