<?xml version="1.0" encoding="UTF-8"?>
<svg xmlns="http://www.w3.org/2000/svg" xmlns:xlink="http://www.w3.org/1999/xlink" width="32pt" height="32pt" viewBox="0 0 32 32" version="1.1">
<g id="surface8722830">
<path style=" stroke:none;fill-rule:nonzero;fill:rgb(20%,20%,20%);fill-opacity:1;" d="M 28.734375 9.28125 C 28.480469 7.871094 27.265625 6.847656 25.855469 6.527344 C 23.746094 6.078125 19.839844 5.761719 15.613281 5.761719 C 11.390625 5.761719 7.425781 6.078125 5.3125 6.527344 C 3.90625 6.847656 2.6875 7.808594 2.433594 9.28125 C 2.175781 10.878906 1.921875 13.121094 1.921875 16 C 1.921875 18.878906 2.175781 21.121094 2.496094 22.71875 C 2.753906 24.128906 3.96875 25.152344 5.375 25.472656 C 7.613281 25.921875 11.453125 26.238281 15.679688 26.238281 C 19.90625 26.238281 23.746094 25.921875 25.984375 25.472656 C 27.390625 25.152344 28.609375 24.191406 28.863281 22.71875 C 29.121094 21.121094 29.441406 18.816406 29.503906 16 C 29.375 13.121094 29.054688 10.878906 28.734375 9.28125 Z M 12.160156 20.480469 L 12.160156 11.519531 L 19.96875 16 Z M 12.160156 20.480469 "/>
</g>
</svg>
